<?xml version="1.0" standalone="no"?>
<!DOCTYPE svg PUBLIC "-//W3C//DTD SVG 20010904//EN"
 "http://www.w3.org/TR/2001/REC-SVG-20010904/DTD/svg10.dtd">
<svg version="1.0" xmlns="http://www.w3.org/2000/svg"
 width="183.000000pt" height="183.000000pt" viewBox="0 0 183.000000 183.000000"
 preserveAspectRatio="xMidYMid meet">
<metadata>
Created by potrace 1.14, written by Peter Selinger 2001-2017
</metadata>
<g transform="translate(0.000000,183.000000) scale(0.100000,-0.100000)"
fill="#000000" stroke="none">
<path d="M902 1760 c-247 -34 -457 -181 -572 -401 -59 -114 -83 -212 -83 -344
0 -138 19 -221 80 -345 40 -80 61 -109 138 -185 102 -102 167 -144 292 -188
84 -30 95 -32 238 -32 138 1 156 3 230 28 119 42 209 99 300 191 92 93 137
164 177 278 124 352 -31 744 -364 918 -129 68 -297 98 -436 80z m19 -387 c34
-3 54 -13 73 -32 l27 -28 49 17 c28 9 58 24 68 33 10 10 25 17 32 17 7 0 64
-50 127 -112 111 -110 129 -138 102 -165 -6 -6 -15 -33 -20 -59 -5 -26 -17
-59 -26 -73 -12 -17 -17 -40 -15 -67 3 -35 -1 -45 -24 -63 -14 -11 -33 -21
-40 -21 -7 0 -14 -10 -16 -22 -2 -13 -17 -32 -34 -43 -17 -11 -38 -32 -47 -48
-9 -15 -25 -31 -36 -35 -11 -4 -30 -23 -43 -42 -24 -35 -24 -35 -103 -37 -84
-2 -101 5 -116 44 -5 13 -17 26 -26 30 -29 10 -53 35 -53 54 0 10 -10 21 -22
25 -31 9 -58 34 -58 53 0 9 -13 22 -30 28 -40 15 -58 54 -42 96 11 28 9 34
-13 57 -14 14 -27 41 -31 60 -3 19 -10 44 -16 56 -5 12 -8 30 -6 42 1 11 54
73 117 137 108 110 116 116 145 110 17 -3 52 -9 77 -12z"/>
<path d="M824 1351 c-5 -4 -56 -55 -113 -113 -80 -82 -102 -110 -94 -120 6 -7
14 -32 18 -54 4 -25 16 -51 31 -65 l24 -23 48 47 c26 26 53 47 60 47 26 0 9
-28 -53 -90 -51 -51 -65 -71 -63 -90 5 -42 38 -36 91 16 36 35 51 44 59 36 9
-9 5 -20 -18 -44 -64 -70 -66 -75 -54 -97 17 -32 40 -25 92 26 37 36 51 44 60
35 9 -9 0 -23 -35 -61 -26 -28 -47 -56 -47 -64 0 -19 21 -37 42 -37 19 0 22 4
33 54 4 19 15 32 34 39 17 6 36 25 45 44 9 18 26 35 39 38 14 4 28 18 34 36 8
19 23 35 42 42 17 6 31 17 31 23 0 20 34 53 62 59 21 5 34 -1 68 -31 l42 -38
19 23 c11 13 19 35 19 50 0 14 9 42 19 62 l19 36 -103 103 c-98 97 -105 103
-122 88 -10 -9 -38 -21 -62 -28 l-43 -11 76 -79 c43 -44 76 -86 76 -98 0 -34
-38 -72 -73 -72 -26 0 -45 13 -104 72 l-72 72 -56 -53 c-42 -40 -59 -51 -68
-42 -8 8 4 26 48 71 33 33 66 60 74 60 9 0 51 -35 93 -77 66 -66 81 -76 96
-67 37 24 26 45 -84 155 -100 101 -112 109 -147 109 -21 0 -46 4 -56 9 -9 5
-21 6 -27 2z"/>
</g>
</svg>
