<?xml version="1.0" standalone="no"?>
<!DOCTYPE svg PUBLIC "-//W3C//DTD SVG 20010904//EN"
 "http://www.w3.org/TR/2001/REC-SVG-20010904/DTD/svg10.dtd">
<svg version="1.0" xmlns="http://www.w3.org/2000/svg"
 width="183.000000pt" height="183.000000pt" viewBox="0 0 183.000000 183.000000"
 preserveAspectRatio="xMidYMid meet">
<metadata>
Created by potrace 1.14, written by Peter Selinger 2001-2017
</metadata>
<g transform="translate(0.000000,183.000000) scale(0.100000,-0.100000)"
fill="#000000" stroke="none">
<path d="M902 1760 c-247 -34 -457 -181 -572 -401 -59 -114 -83 -212 -83 -344
0 -138 19 -221 80 -345 40 -80 61 -109 138 -185 102 -102 167 -144 292 -188
84 -30 95 -32 238 -32 138 1 156 3 230 28 119 42 209 99 300 191 92 93 137
164 177 278 124 352 -31 744 -364 918 -129 68 -297 98 -436 80z m273 -395 c90
-19 185 -66 224 -111 l31 -35 0 -140 0 -139 -40 -44 c-46 -49 -129 -91 -223
-110 -44 -10 -61 -18 -58 -27 30 -112 -17 -189 -114 -189 -98 0 -143 74 -114
190 3 9 -5 16 -21 18 -61 8 -100 23 -100 39 0 13 7 14 38 9 83 -15 132 -18
157 -12 l28 7 -22 20 c-29 28 -24 69 10 88 24 13 29 13 53 -2 32 -21 34 -60 6
-84 -63 -54 144 -37 258 21 50 26 110 81 99 93 -4 3 -7 1 -7 -5 0 -16 -79 -72
-102 -72 -30 0 -21 17 27 50 25 17 48 42 51 55 8 31 31 33 37 3 2 -13 5 3 6
36 l1 58 -22 -16 c-103 -74 -204 -100 -383 -100 -180 0 -279 26 -384 101 l-24
17 5 -67 c3 -59 8 -71 37 -101 18 -18 50 -42 72 -51 39 -18 53 -45 24 -45 -27
0 -89 37 -125 75 l-35 36 -3 143 -3 144 30 34 c39 45 113 84 203 108 91 24
282 26 383 5z"/>
<path d="M875 1340 c-127 -20 -233 -69 -266 -123 -22 -37 -24 -57 -6 -81 12
-16 17 -15 77 13 65 30 192 61 250 61 45 0 39 -28 -7 -35 -120 -19 -164 -29
-215 -52 -32 -14 -58 -29 -58 -34 0 -14 105 -59 175 -74 90 -19 250 -19 340 0
70 15 175 60 175 74 0 14 -113 59 -180 72 -71 13 -90 23 -74 39 15 15 146 -15
224 -51 60 -28 65 -29 77 -13 45 62 -49 150 -202 189 -76 19 -232 27 -310 15z"/>
<path d="M933 758 c-29 -33 -35 -57 -22 -95 11 -33 51 -63 84 -63 33 0 73 30
84 63 21 63 -18 117 -84 117 -30 0 -47 -6 -62 -22z"/>
</g>
</svg>
