<?xml version="1.0" standalone="no"?>
<!DOCTYPE svg PUBLIC "-//W3C//DTD SVG 20010904//EN"
 "http://www.w3.org/TR/2001/REC-SVG-20010904/DTD/svg10.dtd">
<svg version="1.0" xmlns="http://www.w3.org/2000/svg"
 width="183.000000pt" height="183.000000pt" viewBox="0 0 183.000000 183.000000"
 preserveAspectRatio="xMidYMid meet">
<metadata>
Created by potrace 1.14, written by Peter Selinger 2001-2017
</metadata>
<g transform="translate(0.000000,183.000000) scale(0.100000,-0.100000)"
fill="#000000" stroke="none">
<path d="M902 1760 c-247 -34 -457 -181 -572 -401 -59 -114 -83 -212 -83 -344
0 -138 19 -221 80 -345 40 -80 61 -109 138 -185 102 -102 167 -144 292 -188
84 -30 95 -32 238 -32 138 1 156 3 230 28 119 42 209 99 300 191 92 93 137
164 177 278 124 352 -31 744 -364 918 -129 68 -297 98 -436 80z m330 -537
c161 -160 179 -181 176 -208 -3 -27 -7 -30 -40 -33 l-38 -3 0 -156 0 -155 -34
-34 -34 -34 -262 0 -262 0 -34 34 -34 34 0 155 0 156 -37 3 c-34 3 -38 6 -41
33 -3 27 15 48 176 208 l178 177 54 0 54 0 178 -177z"/>
<path d="M798 1193 l-169 -168 41 -3 40 -3 0 -163 c0 -150 2 -165 21 -190 l20
-26 249 0 249 0 20 26 c19 25 21 40 21 190 l0 163 40 3 41 3 -169 168 c-151
150 -172 167 -202 167 -30 0 -51 -17 -202 -167z m202 -143 c8 0 36 3 62 6 43
5 50 3 78 -24 25 -25 30 -39 30 -76 0 -39 -6 -52 -36 -85 -19 -22 -57 -54 -85
-71 l-49 -32 -49 32 c-28 17 -66 49 -85 71 -30 33 -36 46 -36 85 0 37 5 51 30
76 28 27 35 29 78 24 26 -3 54 -6 62 -6z"/>
<path d="M887 1002 c-38 -41 -12 -97 69 -153 l44 -30 44 30 c82 57 109 117 68
154 -24 22 -46 21 -83 0 -27 -16 -31 -16 -58 0 -37 22 -64 22 -84 -1z"/>
</g>
</svg>
